<mxfile host="app.diagrams.net" modified="2024-02-06T04:10:30.692Z" agent="Mozilla/5.0 (Macintosh; Intel Mac OS X 10_15_7) AppleWebKit/537.36 (KHTML, like Gecko) Chrome/120.0.0.0 Safari/537.36" version="23.1.1" etag="DkzA5ICgt6LXDpqBLs6j" type="github">
  <diagram name="Page-1" id="89GkFF4OMEjrzosiEVJG">
    <mxGraphModel>
      <root>
        <mxCell id="0" />
        <mxCell id="1" parent="0" />
      </root>
    </mxGraphModel>
  </diagram>
</mxfile>
